<?xml version="1.0" standalone="no"?><!DOCTYPE svg PUBLIC "-//W3C//DTD SVG 1.1//EN" "http://www.w3.org/Graphics/SVG/1.1/DTD/svg11.dtd"><svg t="1627617249144" class="icon" viewBox="0 0 1024 1024" version="1.1" xmlns="http://www.w3.org/2000/svg" p-id="5446" xmlns:xlink="http://www.w3.org/1999/xlink" width="200" height="200"><defs><style type="text/css">@font-face { font-family: feedback-iconfont; src: url("//at.alicdn.com/t/font_1031158_1uhr8ri0pk5.eot?#iefix") format("embedded-opentype"), url("//at.alicdn.com/t/font_1031158_1uhr8ri0pk5.woff2") format("woff2"), url("//at.alicdn.com/t/font_1031158_1uhr8ri0pk5.woff") format("woff"), url("//at.alicdn.com/t/font_1031158_1uhr8ri0pk5.ttf") format("truetype"), url("//at.alicdn.com/t/font_1031158_1uhr8ri0pk5.svg#iconfont") format("svg"); }
</style></defs><path d="M512 12.8C236.7488 12.8 12.8 236.7488 12.8 512s223.9488 499.2 499.2 499.2a496.4864 496.4864 0 0 0 448.3072-279.296 38.4 38.4 0 0 0-68.9152-33.8944A420.096 420.096 0 0 1 512 934.4c-232.9088 0-422.4-189.4912-422.4-422.4S279.0912 89.6 512 89.6s422.4 189.4912 422.4 422.4a38.4 38.4 0 0 0 76.8 0c0-275.2512-223.9488-499.2-499.2-499.2z" fill="#438CFF" p-id="5447"></path><path d="M512 716.8a38.4 38.4 0 0 0 38.4-38.4v-128h128a38.4 38.4 0 0 0 0-76.8h-128v-128a38.4 38.4 0 0 0-76.8 0v128h-128a38.4 38.4 0 0 0 0 76.8h128v128c0 21.1968 17.2032 38.4 38.4 38.4z" fill="#438CFF" p-id="5448"></path></svg>