<?xml version="1.0" standalone="no"?><!DOCTYPE svg PUBLIC "-//W3C//DTD SVG 1.1//EN" "http://www.w3.org/Graphics/SVG/1.1/DTD/svg11.dtd"><svg t="1626679332006" class="icon" viewBox="0 0 1024 1024" version="1.1" xmlns="http://www.w3.org/2000/svg" p-id="5776" xmlns:xlink="http://www.w3.org/1999/xlink" width="200" height="200"><defs><style type="text/css"></style></defs><path d="M792.9856 716.6976H388.608c-49.7152 0-92.0064-37.1712-98.3552-86.4768L233.3696 189.6448a18.10432 18.10432 0 0 0-17.92-15.7184H121.856c-16.9472 0-30.72-13.7728-30.72-30.72s13.7728-30.72 30.72-30.72h93.5936c39.8336 0 73.728 29.7984 78.848 69.3248l10.5472 81.4592h533.4528a99.15904 99.15904 0 0 1 98.4576 110.7456c-0.0512 0.6144-0.1536 1.1776-0.256 1.792l-45.1584 254.3104c-6.2976 49.408-48.384 86.5792-98.3552 86.5792z m-480.256-391.9872l38.4512 297.6768c2.4064 18.7392 18.5344 32.8704 37.4272 32.8704h404.3776c19.1488 0 35.2256-14.336 37.4784-33.3312 0.0512-0.6144 0.1536-1.1776 0.256-1.792l45.1072-254.1056c1.024-10.5472-2.2528-20.736-9.3696-28.672a37.3248 37.3248 0 0 0-28.2112-12.6464H312.7296zM389.5296 914.3808c-45.6192 0-82.7392-37.12-82.7392-82.7392s37.12-82.7392 82.7392-82.7392 82.7392 37.12 82.7392 82.7392-37.12 82.7392-82.7392 82.7392z m0-104.0384a21.3504 21.3504 0 0 0-21.2992 21.2992c0 11.7248 9.5744 21.2992 21.2992 21.2992s21.2992-9.5744 21.2992-21.2992c0-11.776-9.5744-21.2992-21.2992-21.2992zM757.4016 914.3808c-45.6192 0-82.7392-37.12-82.7392-82.7392s37.12-82.7392 82.7392-82.7392 82.7392 37.12 82.7392 82.7392-37.12 82.7392-82.7392 82.7392z m0-104.0384a21.3504 21.3504 0 0 0-21.2992 21.2992 21.3504 21.3504 0 0 0 21.2992 21.2992 21.3504 21.3504 0 0 0 21.2992-21.2992c0-11.776-9.5232-21.2992-21.2992-21.2992z" fill="#6FB1F9" p-id="5777"></path></svg>