<?xml version="1.0" standalone="no"?><!DOCTYPE svg PUBLIC "-//W3C//DTD SVG 1.1//EN" "http://www.w3.org/Graphics/SVG/1.1/DTD/svg11.dtd"><svg t="1626679328584" class="icon" viewBox="0 0 1024 1024" version="1.1" xmlns="http://www.w3.org/2000/svg" p-id="5638" xmlns:xlink="http://www.w3.org/1999/xlink" width="200" height="200"><defs><style type="text/css"></style></defs><path d="M893.7 321.95C875.42 300.37 848.73 288 820.45 288h-308.3c-17.67 0-32 14.33-32 32s14.33 32 32 32h308.3c9.56 0 18.24 4.02 24.42 11.32s8.72 16.51 7.15 25.94l-42.67 256A31.903 31.903 0 0 1 777.79 672H438.22a31.895 31.895 0 0 1-31.56-26.74c-0.07-0.41-0.14-0.81-0.23-1.22l-55.09-266.52c-0.12-0.59-0.26-1.18-0.42-1.76l-30.83-186.23c-4.81-29.03-20.89-55.31-44.12-72.09-19.39-14.01-42.32-21.43-66.3-21.45h-0.13c-30.27 0-58.74 11.77-80.17 33.16-21.46 21.41-33.3 49.9-33.33 80.22-0.02 17.67 14.29 32.02 31.97 32.03h0.03c17.66 0 31.98-14.3 32-31.97 0.01-13.22 5.18-25.65 14.54-34.99 9.35-9.33 21.76-14.46 34.96-14.46h0.05c10.46 0.01 20.45 3.24 28.88 9.33 9.66 6.98 16.39 18.16 18.46 30.67l31.35 189.34a32 32 0 0 0 1.03 4.32l54.32 262.8c8.02 46.13 47.68 79.55 94.58 79.55h339.57c47.12 0 86.95-33.74 94.69-80.22l42.67-256c4.65-27.88-3.16-56.25-21.44-77.82z" p-id="5639"></path><path d="M768 833m-54 0a54 54 0 1 0 108 0 54 54 0 1 0-108 0Z" p-id="5640"></path><path d="M448 832m-54 0a54 54 0 1 0 108 0 54 54 0 1 0-108 0Z" p-id="5641"></path></svg>