<?xml version="1.0" standalone="no"?><!DOCTYPE svg PUBLIC "-//W3C//DTD SVG 1.1//EN" "http://www.w3.org/Graphics/SVG/1.1/DTD/svg11.dtd"><svg t="1626679133092" class="icon" viewBox="0 0 1024 1024" version="1.1" xmlns="http://www.w3.org/2000/svg" p-id="3758" xmlns:xlink="http://www.w3.org/1999/xlink" width="200" height="200"><defs><style type="text/css"></style></defs><path d="M886.6 1024H686.8c-75.7 0-137.4-61.6-137.4-137.4V686.8c0-75.7 61.6-137.4 137.4-137.4h199.8c75.7 0 137.4 61.6 137.4 137.4v199.8c0 75.8-61.6 137.4-137.4 137.4zM686.8 624.4c-34.4 0-62.4 28-62.4 62.4v199.8c0 34.4 28 62.4 62.4 62.4h199.8c34.4 0 62.4-28 62.4-62.4V686.8c0-34.4-28-62.4-62.4-62.4H686.8zM337.2 1024H137.4C61.6 1024 0 962.4 0 886.6V686.8c0-75.7 61.6-137.4 137.4-137.4h199.8c75.7 0 137.4 61.6 137.4 137.4v199.8c-0.1 75.8-61.7 137.4-137.4 137.4zM137.4 624.4c-34.4 0-62.4 28-62.4 62.4v199.8c0 34.4 28 62.4 62.4 62.4h199.8c34.4 0 62.4-28 62.4-62.4V686.8c0-34.4-28-62.4-62.4-62.4H137.4z m749.2-149.9H686.8c-75.7 0-137.4-61.6-137.4-137.4V137.4C549.5 61.6 611.1 0 686.8 0h199.8C962.4 0 1024 61.6 1024 137.4v199.8c0 75.7-61.6 137.3-137.4 137.3zM686.8 74.9c-34.4 0-62.4 28-62.4 62.4v199.8c0 34.4 28 62.4 62.4 62.4h199.8c34.4 0 62.4-28 62.4-62.4V137.4C949 103 921 75 886.6 75H686.8zM337.2 474.5H137.4C61.6 474.5 0 412.9 0 337.2V137.4C0 61.6 61.6 0 137.4 0h199.8c75.7 0 137.4 61.6 137.4 137.4v199.8c-0.1 75.7-61.7 137.3-137.4 137.3zM137.4 74.9c-34.4 0-62.4 28-62.4 62.4v199.8c0 34.4 28 62.4 62.4 62.4h199.8c34.4 0 62.4-28 62.4-62.4V137.4c0-34.4-28-62.4-62.4-62.4H137.4z" fill="#27D0D8" p-id="3759"></path></svg>