<?xml version="1.0" standalone="no"?><!DOCTYPE svg PUBLIC "-//W3C//DTD SVG 1.1//EN" "http://www.w3.org/Graphics/SVG/1.1/DTD/svg11.dtd"><svg t="1628144420557" class="icon" viewBox="0 0 1024 1024" version="1.1" xmlns="http://www.w3.org/2000/svg" p-id="5618" xmlns:xlink="http://www.w3.org/1999/xlink" width="200" height="200"><defs><style type="text/css"></style></defs><path d="M768 1024H256c-83.2 0-147.2-70.4-147.2-153.6V217.6C108.8 134.4 172.8 64 256 64h32c12.8 0 19.2 6.4 19.2 19.2s-12.8 19.2-19.2 19.2H256c-57.6 0-108.8 51.2-108.8 115.2v659.2c0 64 51.2 115.2 108.8 115.2h512c57.6 0 108.8-51.2 108.8-115.2V217.6c0-64-51.2-115.2-108.8-115.2h-38.4c-12.8 0-19.2-6.4-19.2-19.2s12.8-19.2 19.2-19.2h38.4c83.2 0 147.2 70.4 147.2 153.6v659.2c0 76.8-64 147.2-147.2 147.2z" fill="" p-id="5619"></path><path d="M640 166.4H384c-25.6 0-51.2-25.6-51.2-51.2v-64c0-25.6 25.6-51.2 51.2-51.2h256c25.6 0 51.2 25.6 51.2 51.2v64c0 25.6-25.6 51.2-51.2 51.2z m-256-128c-6.4 0-12.8 6.4-12.8 12.8v64c0 6.4 6.4 12.8 12.8 12.8h256c6.4 0 12.8-6.4 12.8-12.8v-64c0-6.4-6.4-12.8-12.8-12.8H384zM736 403.2h-448c-12.8 0-19.2-6.4-19.2-19.2s6.4-19.2 19.2-19.2h448c12.8 0 19.2 6.4 19.2 19.2s-6.4 19.2-19.2 19.2zM736 563.2h-448c-12.8 0-19.2-6.4-19.2-19.2s6.4-19.2 19.2-19.2h448c12.8 0 19.2 6.4 19.2 19.2s-6.4 19.2-19.2 19.2zM544 723.2h-256c-12.8 0-19.2-6.4-19.2-19.2s6.4-19.2 19.2-19.2h256c12.8 0 19.2 6.4 19.2 19.2s-6.4 19.2-19.2 19.2z" fill="" p-id="5620"></path></svg>