<?xml version="1.0" standalone="no"?><!DOCTYPE svg PUBLIC "-//W3C//DTD SVG 1.1//EN" "http://www.w3.org/Graphics/SVG/1.1/DTD/svg11.dtd"><svg t="1627445451150" class="icon" viewBox="0 0 1024 1024" version="1.1" xmlns="http://www.w3.org/2000/svg" p-id="3607" xmlns:xlink="http://www.w3.org/1999/xlink" width="200" height="200"><defs><style type="text/css">@font-face { font-family: feedback-iconfont; src: url("//at.alicdn.com/t/font_1031158_1uhr8ri0pk5.eot?#iefix") format("embedded-opentype"), url("//at.alicdn.com/t/font_1031158_1uhr8ri0pk5.woff2") format("woff2"), url("//at.alicdn.com/t/font_1031158_1uhr8ri0pk5.woff") format("woff"), url("//at.alicdn.com/t/font_1031158_1uhr8ri0pk5.ttf") format("truetype"), url("//at.alicdn.com/t/font_1031158_1uhr8ri0pk5.svg#iconfont") format("svg"); }
</style></defs><path d="M512 93.090909C280.645818 93.090909 93.090909 280.645818 93.090909 512s187.554909 418.909091 418.909091 418.909091 418.909091-187.554909 418.909091-418.909091S743.354182 93.090909 512 93.090909z m107.752727 197.189818a33.047273 33.047273 0 0 1-0.046545 44.544l-2.443637 2.397091L421.608727 512l195.653818 174.778182c12.893091 11.52 14.685091 30.72 4.654546 44.334545l-2.164364 2.629818c-11.589818 12.8-30.952727 14.568727-44.637091 4.608l-2.653091-2.14109-204.89309-182.993455a55.109818 55.109818 0 0 1-2.862546-79.616l2.862546-2.769455 204.89309-182.993454a33.675636 33.675636 0 0 1 47.290182 2.466909z" p-id="3608"></path></svg>