<?xml version="1.0" standalone="no"?><!DOCTYPE svg PUBLIC "-//W3C//DTD SVG 1.1//EN" "http://www.w3.org/Graphics/SVG/1.1/DTD/svg11.dtd"><svg t="1628144375884" class="icon" viewBox="0 0 1024 1024" version="1.1" xmlns="http://www.w3.org/2000/svg" p-id="3896" xmlns:xlink="http://www.w3.org/1999/xlink" width="200" height="200"><defs><style type="text/css"></style></defs><path d="M617.45152 680.62208c-31.14496 0-56.47872-25.4208-56.47872-56.66304v-66.91328c0-31.24736 25.33376-56.66304 56.47872-56.66304h346.19904v180.24448h-346.19904z m0-140.11392c-9.0112 0-16.33792 7.41376-16.33792 16.53248v66.91328c0 9.10848 7.33184 16.52224 16.33792 16.52224h306.05824v-99.96288h-306.05824z" p-id="3897"></path><path d="M150.25664 948.30592c-49.57184 0-89.90208-40.43776-89.90208-90.14272V222.45376c0-49.67424 24.97024-90.0864 74.54208-90.0864h285.68064l-29.3632 32.74752h-247.3984c-33.27488 0-50.10432 16.85504-50.10432 50.16064 0 33.3056 16.83968 50.16576 50.10432 50.16576h753.11616v180.9664h-279.48032c-60.83584 0.00512-110.32576 49.6384-110.32576 110.63808v66.90816c0 60.99968 49.48992 110.62272 110.32576 110.62272h279.48032v123.58144c0 49.70496-40.34048 90.14272-89.92256 90.14272H150.25664z m-49.76128-90.14784c0 27.57632 22.3232 50.00704 49.76128 50.00704h656.75264c27.44832 0 49.78176-22.43072 49.78176-50.00704v-83.44064h-239.33952c-82.96448 0-150.46656-67.6352-150.46656-150.76352v-66.90816c0-83.13344 67.50208-150.76864 150.46656-150.77376h239.33952V305.57696H133.57568c-6.9888 0-13.96736-0.72192-20.73088-2.14528l-12.34944-2.59584v557.32224z" p-id="3898"></path><path d="M210.688 352.82944H143.96416v66.90304h33.36192v-33.42336h33.36192zM210.688 460.09344H143.96416v66.9184h34.76992l-1.408-33.50016 33.36192 0.67584zM210.688 567.36256H143.96416v66.90304h34.03776l-0.67584-33.42336h33.36192zM210.688 674.63168H143.96416v66.8928h34.03776l-0.67584-33.47968 33.36192 0.73728zM210.688 781.88032H143.96416v66.90816h33.36192v-33.47968h33.36192zM709.27872 55.20896L317.12768 220.37504h467.24608l-75.09504-165.16608z m-18.50368 48.54784l34.56512 75.9552H510.44864l180.3264-75.9552zM772.52608 122.12224h34.4832c29.21472 0 55.30624 12.76928 73.5744 32.74752h-92.11392l-15.94368-32.74752z" p-id="3899"></path></svg>