<?xml version="1.0" standalone="no"?><!DOCTYPE svg PUBLIC "-//W3C//DTD SVG 1.1//EN" "http://www.w3.org/Graphics/SVG/1.1/DTD/svg11.dtd"><svg t="1626684964159" class="icon" viewBox="0 0 1024 1024" version="1.1" xmlns="http://www.w3.org/2000/svg" p-id="11916" xmlns:xlink="http://www.w3.org/1999/xlink" width="200" height="200"><defs><style type="text/css"></style></defs><path d="M588.504452 758.113103h-152.893793l-119.172413-51.023448v221.219311l119.172413-51.023449h152.893793l119.172414 51.023449V707.089655z" fill="" p-id="11917"></path><path d="M512.057556 719.624828c-55.084138 0-109.991724-13.417931-160.132414-40.253794-97.633103-52.25931-141.947586-122.703448-160.485517-163.486896-28.424828 1.765517-55.084138-4.413793-66.736552-7.768276-18.361379-2.471724-40.606897-16.948966-107.873103-94.278621-24.54069-28.071724-21.892414-70.973793 5.649655-95.514482 19.597241-17.478621 54.377931-61.969655 95.161379-121.997242a111.192276 111.192276 0 0 1 124.115862-44.137931c12.711724 3.884138 25.953103 7.062069 36.193104 9.533793C374.347211 96.573793 506.231349 95.691034 512.057556 95.691034c5.826207 0 137.710345 0.882759 233.931034 65.853794 10.24-2.295172 23.481379-5.649655 36.193104-9.533794 46.786207-13.947586 96.573793 3.707586 124.115862 44.137932 40.783448 60.027586 75.564138 104.518621 95.161379 121.997241 27.718621 24.54069 30.190345 67.442759 5.649655 95.691034-67.266207 77.329655-89.511724 91.806897-107.873103 94.278621-11.652414 3.354483-38.311724 9.533793-66.736552 7.768276-18.537931 40.606897-62.675862 111.051034-160.485517 163.486896A337.602207 337.602207 0 0 1 512.057556 719.624828zM197.442383 430.256552c29.66069 0 57.555862 18.361379 69.737931 46.786207 12.535172 29.307586 45.550345 84.921379 124.822069 127.293793 75.211034 40.253793 164.89931 40.253793 240.110345 0 79.271724-42.372414 112.110345-97.986207 124.822069-127.293793 13.241379-31.073103 45.550345-49.964138 78.212414-46.256552 17.125517 2.118621 37.782069-3.354483 42.902069-4.943448 4.943448-3.884138 20.126897-16.948966 54.731034-55.966897-24.717241-25.423448-57.026207-67.61931-96.573793-125.704828a26.482759 26.482759 0 0 0-29.484138-10.593103c-29.66069 8.827586-60.733793 15.183448-61.969655 15.36l-19.420689 3.884138-15.536552-12.358621c-61.086897-48.904828-163.310345-59.674483-197.737931-59.674482-1.412414 0-124.645517 1.05931-197.737931 59.674482l-15.536552 12.358621-19.42069-3.884138c-1.235862-0.353103-32.308966-6.532414-61.969655-15.36a26.482759 26.482759 0 0 0-29.484138 10.593103c-39.547586 58.085517-72.033103 100.281379-96.573793 125.704828 34.604138 39.017931 49.787586 52.082759 54.731035 55.966897 6.532414 2.118621 26.482759 6.885517 43.07862 4.943448 2.824828-0.353103 5.649655-0.529655 8.297931-0.529655z" fill="" p-id="11918"></path><path d="M511.174797 562.670345a174.609655 174.609655 0 0 1-142.477241-73.975173l55.613793-39.194482a106.46069 106.46069 0 0 0 86.863448 45.020689 105.931034 105.931034 0 0 0 88.099311-46.962758l56.32 38.135172a173.585655 173.585655 0 0 1-144.419311 76.976552z" fill="#BDBCBC" p-id="11919"></path></svg>