<?xml version="1.0" standalone="no"?><!DOCTYPE svg PUBLIC "-//W3C//DTD SVG 1.1//EN" "http://www.w3.org/Graphics/SVG/1.1/DTD/svg11.dtd"><svg t="1626684840894" class="icon" viewBox="0 0 1024 1024" version="1.1" xmlns="http://www.w3.org/2000/svg" p-id="10619" xmlns:xlink="http://www.w3.org/1999/xlink" width="200" height="200"><defs><style type="text/css"></style></defs><path d="M690.1 611c18.1 1.3 48.9 1.8 64.1-10 13.3-10.4 7.8-38.6 5-52.6-21.3-105.6-44.7-217.2-97.1-312.5-15.1-27.4-32.1-55.1-57.9-72.8l-23.9-23.7c-18.3-46.2-132.9-41.9-145.3 0.1l-24.8 23.6c-25.8 17.7-42.9 45.3-57.9 72.8-26.5 48.3-44.5 101-59.4 153.9-14.6 51.8-30.9 105.2-37.7 158.5-1.7 13-5.6 44.5 6.3 53.7 14.3 11 46 10.2 62.9 9l11.1 0.4c-3.9 91-2.7 177.1 3.1 268 4.9 12.2 132.3 24.8 191.6 13.3L563 894c22.3 9.2 109.7-6.9 112.8-14.6 5.8-90.9 7-177 3.1-268l11.2-0.4z" fill="#FE9191" p-id="10620"></path><path d="M759.3 548.4c-21.3-105.6-44.7-217.2-97.1-312.5-15.1-27.4-32.1-55.1-57.9-72.8l-23.9-23.7c-11.3-28.6-59.5-37.8-97.5-30.8 22.1 4.2 41 14.2 47.5 30.8l23.9 23.7c25.8 17.7 42.9 45.3 57.9 72.8 52.3 95.4 75.8 206.9 97.1 312.5 2.8 13.9 8.3 42.2-5 52.6-11.9 9.3-51.1 10.4-67.7 10.5-4.1 0-7.4 3.5-7.2 7.6 3.5 88.2 2.3 172-3.4 260.4-1.8 4.4-31.8 11.7-61 15.2 24.9 7.7 108-7.8 111-15.2 5.8-90.9 7-177 3.1-268l11.1-0.4c18.1 1.3 48.9 1.8 64.1-10 13.3-10.5 7.8-38.7 5-52.7z" fill="#E4406F" p-id="10621"></path><path d="M448.2 274.8c3.8-10.3 5.9-20.3 6.8-29.9-8.4 2.1-16.7 4.1-25.1 6.2l2.7-91.6 2.4-20c12.4-42 127.1-46.3 145.3-0.1l3.2 20.1c0.9 30.5 4.7 87.6 4.7 87.6s-18.7-0.1-27.1-2.2c8.6 14.6 19.1 26.5 19.1 26.5s-40.6 44-50.3 55.4" fill="#FE9191" p-id="10622"></path><path d="M539.1 344.2c-38.9-59-60-133.9-63.2-203.7-0.8-17.7 5.7-28.8 31.9-29.5s36.5 11.3 37 24.9c0.5 15.3 0.6 44.2-0.5 59.4-2.4 32.3-5.3 76.5-31.4 99.4" fill="#E4406F" p-id="10623"></path><path d="M442.1 141.4c0.9-2.8 2.8-6.2 4.9-8.5 3.2-3.5 5.8-5.4 10.1-7.9 9-5.2 19.3-8.1 29.8-9.8 21.1-3.5 45.5-2.3 65 6.7 9.3 4.3 18 10.9 21.5 19.3 1.5 3.7 4.9 6.2 9 5.1 3.5-0.9 6.6-5.3 5.1-9-9.6-23.4-35.1-33.5-58.6-36.9-25.6-3.6-54.1-1.5-77.2 10.9-10.6 5.7-19.9 14.4-23.6 26.1-2.9 9.2 11.2 13 14 4z" fill="#9C297F" p-id="10624"></path><path d="M536.9 131.7c2 25 1.6 50.4-1 75.4-2.5 24-6.7 49.4-18.1 70.9-4.4 8.3 8.2 15.7 12.6 7.4 12.3-23.1 16.9-49.6 19.8-75.3 2.9-26 3.4-52.3 1.3-78.4-0.7-9.3-15.4-9.4-14.6 0zM406.6 156.8c-22.4 15.7-38.7 37.7-52.4 61-13.3 22.6-24.6 46.2-34.6 70.4-20.8 50.5-35.6 103.4-48.6 156.4-7.2 29.4-13.7 59-20.3 88.6-2 9.2 12.1 13.1 14.1 3.9 11.5-51.9 23-103.9 37.9-155 14.6-50.1 32.2-99.6 57.5-145.4 13.9-25.1 29.7-50.5 53.7-67.3 7.7-5.3 0.4-18-7.3-12.6zM246.2 570.7c13.2 0 13.2-20.5 0-20.5s-13.2 20.5 0 20.5zM256.1 608.1c21.7 8.3 45.1 11.8 68.3 10.2 9.4-0.6 9.4-15.3 0-14.6-22.1 1.5-43.8-1.8-64.4-9.7-8.8-3.4-12.6 10.8-3.9 14.1z" fill="#9C297F" p-id="10625"></path><path d="M265.5 572c17.9 7.4 37.1 10.4 56.4 8.3 4-0.4 7.3-3.1 7.3-7.3 0-3.6-3.4-7.7-7.3-7.3-18.2 2-35.6-0.8-52.5-7.8-3.7-1.5-8 1.7-9 5.1-1.2 4.2 1.5 7.5 5.1 9z" fill="#FFFFFF" p-id="10626"></path><path d="M358.2 312c-11.6 73-20.2 146.5-25.5 220.3-5.3 73.7-7.4 147.7-6.3 221.7 0.6 41.9 2.3 83.7 5 125.5 0.6 9.4 15.2 9.4 14.6 0-4.7-73.5-6.3-147.1-4.6-220.7 1.6-73.3 6.4-146.5 14.4-219.3 4.5-41.3 10-82.5 16.6-123.5 0.6-3.9-1-7.8-5.1-9-3.6-1.2-8.5 1.1-9.1 5z" fill="#9C297F" p-id="10627"></path><path d="M359.5 486.8c22.3 0.7 44.4 2.9 66.3 6.8 8.3 1.5 11.9-11.2 3.5-12.7-23.1-4.1-46.4-6.6-69.8-7.3-8.4-0.3-8.4 12.9 0 13.2z" fill="#FFFFFF" p-id="10628"></path><path d="M544.2 372.6c0.7 4.5 1.2 9.2 1.8 14.8 0.6 6.3 1.2 12.6 1.6 18.9 1 14.4 1.7 28.7 2.1 43.1 1.1 35 1.1 70.1 0.7 105.1-0.8 76.2-3.4 152.4-6.4 228.6-1.4 34.5-2.9 69.1-4.2 103.6-0.4 9.4 14.3 9.4 14.6 0 2.6-67.6 5.6-135.2 7.8-202.9 2.4-74.9 4.3-149.9 2.4-224.8-0.8-30.1-1.9-60.4-6.3-90.3-0.6-3.9-5.5-6-9-5.1-4.2 1.1-5.7 5.1-5.1 9zM352.9 895.2c59.5 10.9 119.4 13.3 179.4 4.6 3.9-0.6 6-5.5 5.1-9-1.1-4.2-5.1-5.7-9-5.1-57.2 8.3-114.8 5.8-171.6-4.6-9.3-1.7-13.2 12.4-3.9 14.1zM600.6 169.4c21.4 15 36.4 37 49.2 59.3 12.8 22.3 24 45.6 33.5 69.5 19.9 49.7 34.3 101.5 46.9 153.5 6.9 28.3 13.2 56.8 19.4 85.3 2 9.2 16.1 5.3 14.1-3.9-23-104.4-45.7-212.6-98.5-306.7-14.9-26.5-32.1-52-57.4-69.6-7.6-5.4-14.9 7.3-7.2 12.6zM769.3 571.7c13.2 0 13.2-20.5 0-20.5s-13.2 20.5 0 20.5zM754.6 594c-20.7 7.9-42.4 11.2-64.4 9.7-9.4-0.6-9.4 14 0 14.6 23.2 1.6 46.6-1.9 68.3-10.2 8.7-3.3 4.9-17.5-3.9-14.1z" fill="#9C297F" p-id="10629"></path><path d="M745.1 557.9c-16.9 7-34.3 9.8-52.5 7.8-4-0.4-7.3 3.7-7.3 7.3 0 4.3 3.4 6.9 7.3 7.3 19.3 2.1 38.5-0.9 56.4-8.3 3.7-1.5 6.2-4.8 5.1-9-0.9-3.4-5.3-6.6-9-5.1z" fill="#FFFFFF" p-id="10630"></path><path d="M642.2 315.8c11.6 72.7 20 145.9 25.2 219.3 5.2 73.1 7.2 146.4 6.1 219.7-0.6 41.5-2.3 83.1-5 124.5-0.6 9.4 14 9.4 14.6 0 4.7-73.8 6.3-147.8 4.6-221.7-1.7-73.9-6.6-147.8-14.7-221.3-4.6-41.6-10.2-83.1-16.8-124.5-0.6-3.9-5.5-6-9-5.1-4 1.2-5.6 5.3-5 9.1z" fill="#9C297F" p-id="10631"></path><path d="M655 473.6c-23.4 0.7-46.8 3.2-69.8 7.3-8.3 1.5-4.8 14.2 3.5 12.7 21.9-3.9 44.1-6.2 66.3-6.8 8.4-0.3 8.5-13.5 0-13.2z" fill="#FFFFFF" p-id="10632"></path><path d="M656 877.8c-12.5 7.1-29.1 8.5-43.2 9.7-15.7 1.3-32.2 2-47.8-0.5-9.2-1.5-13.2 12.6-3.9 14.1 17.5 2.8 35.5 2.5 53.1 0.9 16.3-1.4 34.7-3.3 49.2-11.5 8.2-4.7 0.8-17.4-7.4-12.7z" fill="#9C297F" p-id="10633"></path><path d="M474.1 414.4c-0.7-0.4-1.3-0.8-2-0.9-0.5-0.3-1-0.5-1.6-0.7-8.6-2.4-17.7 2.7-20.7 11.1-3.1 8.5 2.2 17.2 10.4 20.2 7.8 2.9 16.7-0.3 20.2-8.1 3.4-7.8 0.8-16.8-6.3-21.6z m-5.8 16.6c-0.8 1.3-2.4 1.3-3.8 0.7-4.2-1.8-1.5-7.3 2.6-6.2h0.1c0.1 0.1 0.2 0.2 0.3 0.2 1.4 1.1 1.7 3.8 0.8 5.3zM533.5 414.4c-0.7-0.4-1.3-0.8-2-0.9-0.5-0.3-1-0.5-1.6-0.7-8.6-2.4-17.7 2.7-20.7 11.1-3.1 8.5 2.2 17.2 10.4 20.2 7.8 2.9 16.7-0.3 20.2-8.1 3.4-7.8 0.8-16.8-6.3-21.6z m-5.9 16.6c-0.8 1.3-2.4 1.3-3.8 0.7-4.2-1.8-1.5-7.3 2.6-6.2h0.1c0.1 0.1 0.2 0.2 0.3 0.2 1.5 1.1 1.7 3.8 0.8 5.3zM474.1 530.8c-0.7-0.4-1.3-0.8-2-0.9-0.5-0.3-1-0.5-1.6-0.7-8.6-2.4-17.7 2.7-20.7 11.1-3.1 8.5 2.2 17.2 10.4 20.2 7.8 2.9 16.7-0.3 20.2-8.1 3.4-7.8 0.8-16.9-6.3-21.6z m-5.8 16.5c-0.8 1.3-2.4 1.3-3.8 0.7-4.2-1.8-1.5-7.3 2.6-6.2h0.1c0.1 0.1 0.2 0.2 0.3 0.2 1.4 1.1 1.7 3.8 0.8 5.3zM533.5 530.8c-0.7-0.4-1.3-0.8-2-0.9-0.5-0.3-1-0.5-1.6-0.7-8.6-2.4-17.7 2.7-20.7 11.1-3.1 8.5 2.2 17.2 10.4 20.2 7.8 2.9 16.7-0.3 20.2-8.1 3.4-7.8 0.8-16.9-6.3-21.6z m-5.9 16.5c-0.8 1.3-2.4 1.3-3.8 0.7-4.2-1.8-1.5-7.3 2.6-6.2h0.1c0.1 0.1 0.2 0.2 0.3 0.2 1.5 1.1 1.7 3.8 0.8 5.3z" fill="#FFFFFF" p-id="10634"></path><path d="M552.3 347.4c-2.3-2.4-4.7-4.8-7.1-7.1-39.9-61-61.5-133-61.4-205.9 0-9.4-14.6-9.4-14.6 0-0.1 58.8 13.4 117.3 39 170.2 0.7 1.5 1.5 3 2.2 4.5a483.97 483.97 0 0 0-53.4-37.6c2.7-8.7 4.4-17.5 5.4-26.7 0.3-3-1.9-5.6-4.6-6.7-0.4-0.2-0.8-0.3-1.2-0.4h-0.4c-0.4-0.1-0.7-0.1-1.1-0.1-0.8 0-1.6 0.1-2.3 0.3-5.1 1.2-10.1 2.5-15.2 3.7 0.8-27.4 1.6-54.8 2.5-82.2 0.3-9.4-14.4-9.4-14.6 0l-2.7 91.6c-0.1 4.9 4.8 8.2 9.3 7.1 4.8-1.2 9.6-2.4 14.3-3.5-1.2 6.2-3 12.3-5.1 18.3-1.1 3 0.7 6.7 3.4 8.3 35.8 21.1 68.5 46.8 97.5 76.6 6.3 6.7 16.7-3.7 10.1-10.4z" fill="#9C297F" p-id="10635"></path><path d="M595.6 247.1c-2-29.2-3.8-58.4-4.7-87.6-0.3-9.4-14.9-9.4-14.6 0 0.8 26.7 2.5 53.5 4.2 80.2-5.8-0.1-11.7-0.5-17.3-1.8-2.7-0.6-4.9 0.2-6.5 1.6-2.3 1.7-3.6 4.6-2.5 7.7 0.3 1.1 0.8 2.2 1.6 3 4.4 7.3 9.4 14.3 14.7 21-12.3 13-24.6 26-36.2 39.7-6.1 7.1 4.2 17.5 10.4 10.4 13-15.3 27-29.9 40.8-44.6 2.8-3 2.7-7.3 0-10.4-3.4-3.9-6.6-7.9-9.6-12.2 4.1 0.2 8.3 0.3 12.4 0.3 3.8 0 7.6-3.4 7.3-7.3z" fill="#9C297F" p-id="10636"></path></svg>