<?xml version="1.0" standalone="no"?><!DOCTYPE svg PUBLIC "-//W3C//DTD SVG 1.1//EN" "http://www.w3.org/Graphics/SVG/1.1/DTD/svg11.dtd"><svg t="1627366636805" class="icon" viewBox="0 0 1024 1024" version="1.1" xmlns="http://www.w3.org/2000/svg" p-id="2722" xmlns:xlink="http://www.w3.org/1999/xlink" width="200" height="200"><defs><style type="text/css">@font-face { font-family: feedback-iconfont; src: url("//at.alicdn.com/t/font_1031158_1uhr8ri0pk5.eot?#iefix") format("embedded-opentype"), url("//at.alicdn.com/t/font_1031158_1uhr8ri0pk5.woff2") format("woff2"), url("//at.alicdn.com/t/font_1031158_1uhr8ri0pk5.woff") format("woff"), url("//at.alicdn.com/t/font_1031158_1uhr8ri0pk5.ttf") format("truetype"), url("//at.alicdn.com/t/font_1031158_1uhr8ri0pk5.svg#iconfont") format("svg"); }
</style></defs><path d="M450.56 563.2a10.24 10.24 0 0 1 10.16832 9.04192L460.8 573.44v245.76a10.24 10.24 0 0 1-9.04192 10.16832L450.56 829.44H204.8a10.24 10.24 0 0 1-10.16832-9.04192L194.56 819.2V573.44a10.24 10.24 0 0 1 9.04192-10.16832L204.8 563.2h245.76z m368.64 0a10.24 10.24 0 0 1 10.24 10.24v245.76a10.24 10.24 0 0 1-10.24 10.24H573.44a10.24 10.24 0 0 1-10.24-10.24V573.44a10.24 10.24 0 0 1 10.24-10.24z m-378.89024 20.48h-225.28v225.28h225.28V583.68z m368.64 0h-225.28v225.28h225.28V583.68zM450.56 194.56a10.24 10.24 0 0 1 10.24 10.24v245.76a10.24 10.24 0 0 1-10.24 10.24H204.8a10.24 10.24 0 0 1-10.24-10.24V204.8a10.24 10.24 0 0 1 10.24-10.24z m368.64 0a10.24 10.24 0 0 1 10.16832 9.04192L829.44 204.8v245.76a10.24 10.24 0 0 1-9.04192 10.16832L819.2 460.8H573.44a10.24 10.24 0 0 1-10.16832-9.04192L563.2 450.56V204.8a10.24 10.24 0 0 1 9.04192-10.16832L573.44 194.56h245.76z m-378.89024 20.48h-225.28v225.28h225.28V215.04z m368.64 0h-225.28v225.28h225.28V215.04z" p-id="2723"></path></svg>