<?xml version="1.0" standalone="no"?><!DOCTYPE svg PUBLIC "-//W3C//DTD SVG 1.1//EN" "http://www.w3.org/Graphics/SVG/1.1/DTD/svg11.dtd"><svg t="1626679258404" class="icon" viewBox="0 0 1024 1024" version="1.1" xmlns="http://www.w3.org/2000/svg" p-id="4770" xmlns:xlink="http://www.w3.org/1999/xlink" width="200" height="200"><defs><style type="text/css"></style></defs><path d="M925.1328 451.584l-382.8224-324.608a46.62784 46.62784 0 0 0-60.5696 0L98.9696 451.584c-15.1552 12.8512-20.5312 33.2288-13.6704 51.8656 6.8608 18.6368 24.1152 30.72 43.9808 30.72h92.5184v318.8736c0 25.8048 20.992 46.848 46.848 46.848h487.7824c25.8048 0 46.848-20.992 46.848-46.848v-318.8736h91.5968c19.8656 0 37.12-12.032 43.9808-30.72s1.4336-39.0144-13.7216-51.8656z m-280.6272 152.832l-104.8576 104.8064c-8.704 8.704-20.2752 13.5168-32.5632 13.5168s-23.8592-4.8128-32.5632-13.5168L369.664 604.416c-17.9712-17.9712-17.9712-47.2064 0-65.1776l104.8064-104.8064c17.9712-17.9712 47.2064-17.9712 65.1776 0l104.8064 104.8064c18.0224 17.9712 18.0224 47.2064 0.0512 65.1776z" fill="#9fc6ff" p-id="4771"></path><path d="M409.4976 571.84256l97.60256-97.60256 97.60256 97.60256-97.60256 97.60256z" fill="#9fc6ff" p-id="4772"></path></svg>