<?xml version="1.0" standalone="no"?><!DOCTYPE svg PUBLIC "-//W3C//DTD SVG 1.1//EN" "http://www.w3.org/Graphics/SVG/1.1/DTD/svg11.dtd"><svg t="1627366616190" class="icon" viewBox="0 0 1024 1024" version="1.1" xmlns="http://www.w3.org/2000/svg" p-id="1980" xmlns:xlink="http://www.w3.org/1999/xlink" width="200" height="200"><defs><style type="text/css">@font-face { font-family: feedback-iconfont; src: url("//at.alicdn.com/t/font_1031158_1uhr8ri0pk5.eot?#iefix") format("embedded-opentype"), url("//at.alicdn.com/t/font_1031158_1uhr8ri0pk5.woff2") format("woff2"), url("//at.alicdn.com/t/font_1031158_1uhr8ri0pk5.woff") format("woff"), url("//at.alicdn.com/t/font_1031158_1uhr8ri0pk5.ttf") format("truetype"), url("//at.alicdn.com/t/font_1031158_1uhr8ri0pk5.svg#iconfont") format("svg"); }
</style></defs><path d="M215 265.6m-24.5 0a24.5 24.5 0 1 0 49 0 24.5 24.5 0 1 0-49 0Z" fill="#263554" p-id="1981"></path><path d="M215 487.8m-24.5 0a24.5 24.5 0 1 0 49 0 24.5 24.5 0 1 0-49 0Z" fill="#263554" p-id="1982"></path><path d="M215 710.1m-24.5 0a24.5 24.5 0 1 0 49 0 24.5 24.5 0 1 0-49 0Z" fill="#263554" p-id="1983"></path><path d="M818.6 265.6c0-11.4-9.4-20.8-20.8-20.8H315.2c-11.4 0-20.8 9.4-20.8 20.8s9.4 20.8 20.8 20.8h482.5c11.5 0 20.9-9.4 20.9-20.8zM818.6 486.5c0-11.4-9.4-20.8-20.8-20.8H315.2c-11.4 0-20.8 9.4-20.8 20.8s9.4 20.8 20.8 20.8h482.5c11.5 0 20.9-9.4 20.9-20.8zM818.6 707.4c0-11.4-9.4-20.8-20.8-20.8H315.2c-11.4 0-20.8 9.4-20.8 20.8s9.4 20.8 20.8 20.8h482.5c11.5 0 20.9-9.4 20.9-20.8z" fill="#263554" p-id="1984"></path></svg>