<?xml version="1.0" standalone="no"?><!DOCTYPE svg PUBLIC "-//W3C//DTD SVG 1.1//EN" "http://www.w3.org/Graphics/SVG/1.1/DTD/svg11.dtd"><svg t="1626679410522" class="icon" viewBox="0 0 1024 1024" version="1.1" xmlns="http://www.w3.org/2000/svg" p-id="7969" xmlns:xlink="http://www.w3.org/1999/xlink" width="200" height="200"><defs><style type="text/css"></style></defs><path d="M 925.072 866.338 c -22.55 -58.665 -54.879 -111.396 -96.079 -156.727 c -41.419 -45.572 -89.732 -81.389 -143.598 -106.458 a 428.81 428.81 0 0 0 -31.037 -12.991 c 23.153 -13.107 44.673 -29.438 63.998 -48.763 c 56.076 -56.076 86.959 -130.633 86.959 -209.936 s -30.881 -153.86 -86.959 -209.936 s -130.634 -86.959 -209.937 -86.959 s -153.86 30.883 -209.937 86.959 c -56.076 56.078 -86.959 130.633 -86.959 209.936 s 30.883 153.86 86.959 209.936 c 19.325 19.325 40.846 35.655 63.997 48.763 a 429.898 429.898 0 0 0 -31.037 12.991 c -53.866 25.068 -102.179 60.884 -143.598 106.458 c -41.202 45.332 -75.248 97.431 -96.08 156.727 c -17.385 49.481 -15.568 98.351 -16.45 121.174 h 69.838 C 142.848 824.515 297.84 633.689 508.42 633.689 c 210.579 0 369.644 197.809 370.256 353.823 h 69.837 c -1.243 -44.114 -0.159 -60.62 -23.438 -121.174 Z M 281.379 331.462 c 0 -125.188 101.85 -227.038 227.039 -227.038 c 125.188 0 227.039 101.85 227.039 227.038 S 633.606 558.5 508.418 558.5 c -125.189 0 -227.039 -101.85 -227.039 -227.038 Z" fill="#8a8a8a" p-id="7970"></path></svg>