<?xml version="1.0" standalone="no"?><!DOCTYPE svg PUBLIC "-//W3C//DTD SVG 1.1//EN" "http://www.w3.org/Graphics/SVG/1.1/DTD/svg11.dtd"><svg t="1627366647579" class="icon" viewBox="0 0 1024 1024" version="1.1" xmlns="http://www.w3.org/2000/svg" p-id="2887" xmlns:xlink="http://www.w3.org/1999/xlink" width="200" height="200"><defs><style type="text/css">@font-face { font-family: feedback-iconfont; src: url("//at.alicdn.com/t/font_1031158_1uhr8ri0pk5.eot?#iefix") format("embedded-opentype"), url("//at.alicdn.com/t/font_1031158_1uhr8ri0pk5.woff2") format("woff2"), url("//at.alicdn.com/t/font_1031158_1uhr8ri0pk5.woff") format("woff"), url("//at.alicdn.com/t/font_1031158_1uhr8ri0pk5.ttf") format("truetype"), url("//at.alicdn.com/t/font_1031158_1uhr8ri0pk5.svg#iconfont") format("svg"); }
</style></defs><path d="M418.890567 488.728529 209.444259 488.728529c-38.496687 0-69.815436-31.318749-69.815436-69.815436L139.628824 209.466786c0-38.496687 31.318749-69.815436 69.815436-69.815436l209.446307 0c38.496687 0 69.815436 31.318749 69.815436 69.815436l0 209.445283C488.706002 457.409781 457.387254 488.728529 418.890567 488.728529zM209.444259 186.195316c-12.832229 0-23.272495 10.440266-23.272495 23.272495l0 209.445283c0 12.832229 10.440266 23.272495 23.272495 23.272495l209.446307 0c12.832229 0 23.272495-10.440266 23.272495-23.272495L442.163061 209.466786c0-12.832229-10.440266-23.272495-23.272495-23.272495L209.444259 186.194292z" p-id="2888"></path><path d="M814.556765 581.81646 605.109433 581.81646c-38.496687 0-69.815436-31.319773-69.815436-69.815436L535.293998 209.466786c0-38.496687 31.318749-69.815436 69.815436-69.815436l209.447331 0c38.496687 0 69.815436 31.318749 69.815436 69.815436l0 302.533214C884.371176 550.496687 853.052428 581.81646 814.556765 581.81646zM605.109433 186.195316c-12.831205 0-23.271471 10.440266-23.271471 23.272495l0 302.533214c0 12.832229 10.439242 23.271471 23.271471 23.271471l209.447331 0c12.831205 0 23.271471-10.439242 23.271471-23.271471L837.828235 209.466786c0-12.832229-10.439242-23.272495-23.271471-23.272495L605.109433 186.194292z" p-id="2889"></path><path d="M418.890567 884.371176 209.444259 884.371176c-38.496687 0-69.815436-31.318749-69.815436-69.815436L139.628824 605.109433c0-38.496687 31.318749-69.815436 69.815436-69.815436l209.446307 0c38.496687 0 69.815436 31.318749 69.815436 69.815436l0 209.447331C488.706002 853.052428 457.387254 884.371176 418.890567 884.371176zM209.444259 581.837963c-12.832229 0-23.272495 10.439242-23.272495 23.271471l0 209.447331c0 12.831205 10.440266 23.271471 23.272495 23.271471l209.446307 0c12.832229 0 23.272495-10.439242 23.272495-23.271471L442.163061 605.109433c0-12.831205-10.440266-23.271471-23.272495-23.271471L209.444259 581.837963z" p-id="2890"></path><path d="M814.533214 884.371176 605.086906 884.371176c-38.496687 0-69.815436-31.318749-69.815436-69.815436L535.271471 698.197364c0-38.496687 31.318749-69.815436 69.815436-69.815436l209.446307 0c38.496687 0 69.815436 31.318749 69.815436 69.815436l0 116.359401C884.348649 853.052428 853.029901 884.371176 814.533214 884.371176zM605.086906 674.925893c-12.831205 0-23.271471 10.439242-23.271471 23.271471l0 116.359401c0 12.831205 10.439242 23.271471 23.271471 23.271471l209.446307 0c12.831205 0 23.271471-10.439242 23.271471-23.271471L837.804684 698.197364c0-12.831205-10.439242-23.271471-23.271471-23.271471L605.086906 674.925893z" p-id="2891"></path></svg>