<?xml version="1.0" standalone="no"?><!DOCTYPE svg PUBLIC "-//W3C//DTD SVG 1.1//EN" "http://www.w3.org/Graphics/SVG/1.1/DTD/svg11.dtd"><svg t="1628144397567" class="icon" viewBox="0 0 1024 1024" version="1.1" xmlns="http://www.w3.org/2000/svg" p-id="4733" xmlns:xlink="http://www.w3.org/1999/xlink" width="200" height="200"><defs><style type="text/css"></style></defs><path d="M525.963636 95.115636c-7.819636-2.327273-16.058182-2.653091-24.017454-1.000727l-3.956364 1.000727L175.057455 190.370909a49.408 49.408 0 0 0-35.281455 43.799273L139.636364 238.08l2.141091 395.403636 1.233454 5.003637c4.654545 17.198545 23.970909 75.170909 85.457455 131.351272 60.834909 55.621818 219.834182 130.629818 263.470545 150.667637l5.422546 2.490182 16.826181 7.936 29.649455-14.778182 31.604364-15.499637c65.582545-32.372364 172.567273-87.389091 220.090181-130.90909 59.438545-54.318545 79.453091-110.312727 84.945455-129.489455l1.745454-6.795636 0.41891-4.654546L884.363636 238.010182a49.408 49.408 0 0 0-31.767272-46.382546l-3.653819-1.233454L525.963636 95.115636z m-13.963636 68.654546l302.498909 89.227636-1.652364 369.733818-0.535272 1.652364a166.4 166.4 0 0 1-8.378182 20.666182c-10.891636 22.644364-26.949818 45.568-49.361455 67.351273l-6.213818 5.818181c-11.333818 10.402909-29.882182 23.714909-54.085818 38.772364-14.103273 8.797091-29.858909 18.013091-47.104 27.624727l-10.519273 5.818182a2288.709818 2288.709818 0 0 1-91.182545 47.127273l-32.256 15.825454-8.587637-3.956363a2345.192727 2345.192727 0 0 1-85.108363-42.007273l-12.730182-6.656-16.337455-8.750545c-53.341091-28.928-94.324364-54.923636-114.874181-73.751273l-6.004364-5.632c-22.504727-21.829818-38.632727-44.8-49.524364-67.490909L216.436364 637.207273a148.759273 148.759273 0 0 1-3.793455-9.658182l-1.047273-3.165091-2.024727-371.362909L512 163.770182z" p-id="4734"></path><path d="M692.829091 568.180364V698.181818h-47.709091v-18.688H400.221091V698.181818h-48.151273v-130.001454H692.829091z m-47.709091 32.954181H400.221091v46.731637H645.12V601.134545zM554.705455 279.272727c5.143273 7.726545 10.007273 15.802182 14.545454 24.273455 3.025455 5.632 5.771636 11.101091 8.285091 16.407273l3.514182 7.842909h133.12v31.604363h-143.569455v29.393455h131.328v29.812363h-131.328v29.393455h131.328v27.601455h-131.328v29.812363H721.454545v32.954182H400.221091v13.800727h-46.312727v-133.562182a729.390545 729.390545 0 0 1-30.417455 32.814546l-6.865454 6.818909-5.445819-20.48L302.545455 409.716364c36.561455-35.84 64.651636-75.380364 84.247272-118.621091l4.352-10.053818 49.966546 5.352727-21.341091 41.402182h108.125091l-10.449455-20.48-10.891636-20.922182L554.705455 279.272727z m-30.440728 196.328728h-124.043636v29.812363h124.043636v-29.812363z m0-56.99491h-124.043636v29.393455h124.043636v-29.393455z m0-59.205818h-124.043636v29.393455h124.043636v-29.393455z" p-id="4735"></path></svg>