<?xml version="1.0" standalone="no"?><!DOCTYPE svg PUBLIC "-//W3C//DTD SVG 1.1//EN" "http://www.w3.org/Graphics/SVG/1.1/DTD/svg11.dtd"><svg t="1626684758355" class="icon" viewBox="0 0 1024 1024" version="1.1" xmlns="http://www.w3.org/2000/svg" p-id="9594" xmlns:xlink="http://www.w3.org/1999/xlink" width="200" height="200"><defs><style type="text/css"></style></defs><path d="M700.7 182.2c-5.7-40.5-40.3-70.6-81.2-70.6H404.7c-40.9 0-75.6 30.1-81.2 70.6-5.7 40.5-40.3 70.6-81.2 70.6h-93.7c-45.3 0-82 36.7-82 82v499.6c0 45.3 36.7 82 82 82h727.1c45.3 0 82-36.7 82-82V334.9c0-45.3-36.7-82-82-82H782c-41 0-75.6-30.2-81.3-70.7z" fill="#FAB001" p-id="9595"></path><path d="M700.7 182.2c-5.7-40.5-40.3-70.6-81.2-70.6H404.7c-40.9 0-75.6 30.1-81.2 70.6-5.7 40.5-40.3 70.6-81.2 70.6h-93.7c-45.3 0-82 36.7-82 82v499.6c0 45.3 36.7 82 82 82h727.1c45.3 0 82-36.7 82-82V334.9c0-45.3-36.7-82-82-82H782c-41 0-75.6-30.2-81.3-70.7z" fill="#FAB001" p-id="9596"></path><path d="M79.6 844h727.1c45.3 0 82-36.7 82-82V262.4c0-2.9-0.1-5.7-0.4-8.4-4.1-0.6-8.3-1.1-12.7-1.1h-93.7c-40.9 0-75.6-30.1-81.2-70.6-5.7-40.5-40.3-70.6-81.2-70.6H404.7c-40.9 0-75.6 30.1-81.2 70.6-5.7 40.5-40.3 70.6-81.2 70.6h-93.7c-45.3 0-82 36.7-82 82v499.6c0 2.9 0.1 5.7 0.4 8.4 4 0.7 8.3 1.1 12.6 1.1z" fill="#F9E48A" p-id="9597"></path><path d="M888.3 253.9c-4.1-0.6-8.3-1.1-12.7-1.1h-93.7c-40.9 0-75.6-30.1-81.2-70.6-1.1-8.2-3.7-15.7-7-22.9-10.7-2.7-23-5.2-40.2-5.2H472.8c-40.9 0-75.6 30.1-81.2 70.6-5.7 40.5-40.3 70.6-81.2 70.6h-93.7c-45.3 0-82 36.7-82 82V844h672.1c45.3 0 82-36.7 82-82V262.4c-0.1-2.9-0.3-5.7-0.5-8.5z" fill="#FECE0A" p-id="9598"></path><path d="M512.1 538.2m-180.2 0a180.2 180.2 0 1 0 360.4 0 180.2 180.2 0 1 0-360.4 0Z" fill="#39AFDA" p-id="9599"></path><path d="M650.4 503.2c0-45.8-17.2-87.5-45.3-119.2-27.2-16.4-58.9-26-93-26-99.5 0-180.2 80.7-180.2 180.2 0 45.4 16.9 86.7 44.6 118.4 0.3 0.3 0.5 0.6 0.8 0.8 27.2 16.4 58.9 26 92.9 26 99.5 0 180.2-80.7 180.2-180.2z" fill="#52C5F8" p-id="9600"></path></svg>