<?xml version="1.0" standalone="no"?><!DOCTYPE svg PUBLIC "-//W3C//DTD SVG 1.1//EN" "http://www.w3.org/Graphics/SVG/1.1/DTD/svg11.dtd"><svg t="1626684918466" class="icon" viewBox="0 0 1024 1024" version="1.1" xmlns="http://www.w3.org/2000/svg" p-id="11682" xmlns:xlink="http://www.w3.org/1999/xlink" width="200" height="200"><defs><style type="text/css"></style></defs><path d="M593.3 461V286.6c0-3.9-3.1-7-7-7h-401c-4.8 0-8.2 4.7-6.6 9.3 3.7 10.7 12 29.5 29.9 51.1l26.7 25.4h27.9c8.3 7 17 13.7 26.2 20h-30.9c0.5 0.2 0.9 0.4 1.4 0.7 58.9 40.6 158.3 78.1 326.3 82 3.8 0 7.1-3.1 7.1-7.1z m-20-20.6c0 4-3.3 7.2-7.3 7-129.5-5.3-229.1-31.8-296.5-79l-3.4-2.3c-1.2-0.8-2.6-1.3-4-1.3-1.9 0-3.8-0.8-5.1-2.2l-23.8-25c-9.2-9.7-16.3-19-21.6-27.3-3-4.7 0.3-10.8 5.9-10.8h348.7c3.9 0 7 3.1 7 7v133.9z" fill="#B92A3A" p-id="11683"></path><path d="M566.3 299.6H217.5c-5.6 0-8.9 6.1-5.9 10.8 5.3 8.3 12.4 17.6 21.6 27.3l23.8 25c1.3 1.4 3.2 2.2 5.1 2.2 1.4 0 2.8 0.4 4 1.3l3.4 2.3c67.4 47.1 167 73.7 296.5 79 4 0.2 7.3-3 7.3-7V306.6c0-3.9-3.1-7-7-7z m-199 62.9c-7.5 0-14.8-3-20.1-8.3-5.3-5.3-8.3-12.5-8.3-20.1 0-15.7 12.7-28.4 28.4-28.4s28.3 12.7 28.3 28.4c0.1 15.6-12.6 28.3-28.3 28.4z" fill="#E43B33" p-id="11684"></path><path d="M367.3 305.7c-15.7 0-28.4 12.7-28.4 28.4 0 7.5 3 14.8 8.3 20.1 5.3 5.3 12.5 8.3 20.1 8.3 15.7 0 28.4-12.7 28.3-28.4 0.1-15.7-12.6-28.4-28.3-28.4zM824.8 356.1c4.1-4.3 4.8-10.6 2-15.5-0.7-1.2-1.6-2.3-2.6-3.2-63-55.4-156.1-56.5-189.4-54.9-6.9 0.3-12.3 6-12.3 13v161c0 3.6 1.5 6.8 3.8 9.2 2.3 2.4 5.6 3.8 9.2 3.8 11.6 0 17.4 14.1 9.1 22.2l-57.3 56.6c-3.6 3.6-5.4 8.3-5.4 13 0 4.7 1.8 9.4 5.4 13 7.2 7.1 18.8 7 25.9-0.3l200-205.7 11.6-12.2z m-26.1-1.9l-90.1 92.7c-1.5 1.6-3.7 2.5-5.9 2.5h-52.1c-4.5 0-8.2-3.7-8.2-8.2V310.3c0-4.5 3.7-8.2 8.2-8.2h0.1c36 0 98.6 5.6 146.9 39.8 4.1 2.8 4.6 8.7 1.1 12.3z" fill="#B92A3A" p-id="11685"></path><path d="M797.6 341.8C749.3 307.7 686.8 302 650.7 302h-0.1c-4.5 0-8.2 3.7-8.2 8.2v130.9c0 4.5 3.7 8.2 8.2 8.2h52.1c2.2 0 4.3-0.9 5.9-2.5l90.1-92.7c3.5-3.5 3-9.4-1.1-12.3z" fill="#E43B33" p-id="11686"></path><path d="M937.6 466.7c-12.3-27.6-32.1-57.3-63.2-86.2-5.9-5.5-15.1-5.5-21.1 0L729 496.3c-5.9 5.5-6.6 14.7-1.5 21 8.5 10.6 0.3 26.2-13.3 25.2l-7.7-0.6c-5.7-0.5-11.4 1.6-15.5 5.6l-47.5 46.3c-8 7.8-8 20.5-0.2 28.4 6.4 6.4 16.8 6.4 23.2 0l30.5-30.4c3.7-3.7 8.8-5.8 14.1-5.8h230c8 0 14.7-6.1 15.4-14.1 1.7-20.2 1.4-59.8-18.9-105.2zM926 565.9H797.8c-3.3 0-6.5-1.5-8.6-4.1l-36.9-45.7c-3.6-4.5-3.2-11.1 1.1-15.1l102.8-95.7c4.4-4.1 11.3-3.9 15.5 0.4 20.7 21.3 36.7 44.5 47.8 69.2 14.2 31.7 17.6 60.3 17.8 79.8-0.1 6.2-5.1 11.2-11.3 11.2z" fill="#B92A3A" p-id="11687"></path><path d="M871.5 405.7c-4.2-4.3-11.1-4.5-15.5-0.4L753.3 501c-4.3 4-4.7 10.5-1.1 15.1l36.9 45.7c2.1 2.6 5.3 4.1 8.6 4.1H926c6.2 0 11.1-5 11.1-11.2-0.2-19.6-3.6-48.2-17.8-79.8-11.1-24.7-27.1-47.9-47.8-69.2zM892.7 515c-4.8 1.5-10-0.9-12.1-5.5-6.8-14.9-15.7-28.3-26.3-39.9-5-5.4-2.6-14.2 4.5-16.3 3.7-1.1 7.7-0.1 10.3 2.8 12 13.2 22.2 28.3 29.8 45.2 0.6 1.3 0.9 2.7 0.9 4.1 0 4.2-2.8 8.2-7.1 9.6z" fill="#E43B33" p-id="11688"></path><path d="M925.7 612.2H765.4c-6.9 0-12.6 5.6-12.6 12.6v16.1c0 6.9-5.6 12.6-12.6 12.6h-59.9c-10.6 0-19.2 8.6-19.2 19.2s8.6 19.2 19.2 19.2h37.5c3.4 0 6.7 1.4 9 3.8l80.8 83.8c3.3 3.5 8.4 4.7 12.9 3.2 20.6-6.7 77-35.5 116.9-153.8l0.1-0.2c2.9-8.1-3.2-16.5-11.8-16.5z m-11.8 23.7c-21.5 57.9-46.4 89.3-64.7 106-11.6 10.5-21.7 16.3-28.8 19.5-1 0.5-2.2 0.2-3-0.6L737.6 678c-1.6-1.7-0.4-4.6 1.9-4.6h30.6c1.5 0 2.7-1.2 2.7-2.7v-35.8c0-1.5 1.2-2.7 2.7-2.7h135.8c1.9 0 3.2 1.9 2.6 3.7z" fill="#B92A3A" p-id="11689"></path><path d="M911.4 632.2H775.6c-1.5 0-2.7 1.2-2.7 2.7v35.8c0 1.5-1.2 2.7-2.7 2.7h-30.6c-2.4 0-3.6 2.9-1.9 4.6l79.8 82.7c0.8 0.8 2 1.1 3 0.6 7.1-3.1 17.2-8.9 28.8-19.5 18.3-16.6 43.2-48.1 64.7-106 0.5-1.7-0.8-3.6-2.6-3.6z" fill="#E43B33" p-id="11690"></path><path d="M697.6 711.9c-2.9-3.2-7.9-3.7-11.3-1-0.4 0.3-0.9 0.7-1.3 1-17.1 13.3-57.5 50.5-61.6 107.5-0.2 3.2-0.4 6.5-0.4 9.9 0 4.9 4.1 8.8 9 8.4 17.6-1.3 59.3-5.5 99-18.3 12.6-4.1 25-9 36.4-15 4.9-2.6 6-9 2.3-13.1l-72.1-79.4z m38.1 84.7c-29 10.8-61.1 16.3-83.7 19-4.3 0.5-7.9-3.3-7.1-7.6 6.2-32.2 25.6-56.1 40.4-70.1 2.6-2.5 6.8-2.3 9.2 0.3l43.7 48c3.1 3.4 1.8 8.8-2.5 10.4z" fill="#B92A3A" p-id="11691"></path><path d="M694.6 738.2c-2.4-2.7-6.6-2.8-9.2-0.3-14.7 14.1-34.2 38-40.4 70.1-0.8 4.3 2.8 8.1 7.1 7.6 22.6-2.7 54.7-8.2 83.7-19 4.3-1.6 5.5-7 2.5-10.3l-43.7-48.1z" fill="#E43B33" p-id="11692"></path><path d="M405.5 682.2c-3.9 0-7.8 0.1-11.8 0.2-6.4 0.2-10.4 7-7.4 12.6 13.9 26.2 54.5 89 140.2 124.3 13.7 5.6 28.5 10.6 44.5 14.6 3.2 0.8 6.4 1.5 9.6 2.2 5.4 1.2 10.5-3 10.4-8.6 0-2.4-0.2-5.2-0.4-8.2-3-41.5-27.3-137.1-185.1-137.1z m155.4 128.2c-9.2-2.8-18.1-6-26.8-9.5-42-17.3-77.4-43.6-105.3-78-3-3.7-5.7-7.3-8.2-10.8-2.9-4 0.2-9.6 5.1-9.3 52.1 3.1 91 18.4 115.6 45.8 16 17.7 23.6 37.8 27.1 55 0.8 4.3-3.3 8-7.5 6.8z" fill="#B92A3A" p-id="11693"></path><path d="M541.2 748.6c-24.6-27.4-63.5-42.7-115.6-45.8-4.9-0.3-8 5.3-5.1 9.3 2.5 3.5 5.2 7.1 8.2 10.8 27.9 34.4 63.3 60.7 105.3 78 8.6 3.6 17.6 6.7 26.8 9.5 4.3 1.3 8.4-2.4 7.5-6.8-3.5-17.2-11.1-37.3-27.1-55z" fill="#E43B33" p-id="11694"></path><path d="M869 456c-2.6-2.8-6.6-3.9-10.3-2.8-7 2.1-9.4 10.9-4.5 16.3 10.6 11.6 19.6 25 26.3 39.9 2.1 4.6 7.2 7 12.1 5.5 4.4-1.3 7.1-5.3 7.1-9.6 0-1.4-0.3-2.8-0.9-4.1-7.6-16.8-17.7-32-29.8-45.2z" fill="#FFFFFF" p-id="11695"></path><path d="M263.2 365.3h-58c-55.1 0-101.3-45.1-101.2-100.2 0.1-41.4 25.4-77 61.4-92.2 11.9-5 25-7.8 38.7-7.8h591.4c17.2 0 33.3 4.4 47.5 12 1.5 0.8 3.1 1.2 4.8 1.2h0.9c10.1 0 13.5-13.4 4.6-18.3-17.2-9.5-36.8-14.9-57.7-14.9H204.1c-8.1 0-16 0.8-23.7 2.4-4.7 1-9.4 2.2-13.9 3.7-18 6-34.1 16.1-47.2 29.2-17.9 17.9-30.2 41.3-34 67.4-0.9 6.3-1.4 12.8-1.3 19.4 1.1 65.8 55.6 118.1 121.4 118.1h83.9c-9.1-6.3-17.8-13-26.1-20z" fill="#B92A3A" p-id="11696"></path></svg>