<?xml version="1.0" standalone="no"?><!DOCTYPE svg PUBLIC "-//W3C//DTD SVG 1.1//EN" "http://www.w3.org/Graphics/SVG/1.1/DTD/svg11.dtd"><svg t="1626858058986" class="icon" viewBox="0 0 1024 1024" version="1.1" xmlns="http://www.w3.org/2000/svg" p-id="3566" xmlns:xlink="http://www.w3.org/1999/xlink" width="200" height="200"><defs><style type="text/css">@font-face { font-family: feedback-iconfont; src: url("//at.alicdn.com/t/font_1031158_1uhr8ri0pk5.eot?#iefix") format("embedded-opentype"), url("//at.alicdn.com/t/font_1031158_1uhr8ri0pk5.woff2") format("woff2"), url("//at.alicdn.com/t/font_1031158_1uhr8ri0pk5.woff") format("woff"), url("//at.alicdn.com/t/font_1031158_1uhr8ri0pk5.ttf") format("truetype"), url("//at.alicdn.com/t/font_1031158_1uhr8ri0pk5.svg#iconfont") format("svg"); }
</style></defs><path d="M576 904.533333c-17.066667 0-29.866667-12.8-34.133333-25.6-4.266667-17.066667 8.533333-34.133333 25.6-38.4 174.933333-29.866667 302.933333-179.2 302.933333-354.133333 0-200.533333-162.133333-362.666667-362.666667-362.666667s-362.666667 162.133333-362.666666 362.666667c0 85.333333 29.866667 166.4 85.333333 230.4 12.8 12.8 8.533333 34.133333-4.266667 46.933333-12.8 12.8-34.133333 8.533333-46.933333-4.266666C119.466667 678.4 85.333333 584.533333 85.333333 482.133333c0-234.666667 192-426.666667 426.666667-426.666666s426.666667 192 426.666667 426.666666c0 209.066667-149.333333 388.266667-358.4 422.4h-4.266667z" p-id="3567"></path><path d="M315.733333 482.133333m-51.2 0a51.2 51.2 0 1 0 102.4 0 51.2 51.2 0 1 0-102.4 0Z" p-id="3568"></path><path d="M512 482.133333m-51.2 0a51.2 51.2 0 1 0 102.4 0 51.2 51.2 0 1 0-102.4 0Z" p-id="3569"></path><path d="M708.266667 482.133333m-51.2 0a51.2 51.2 0 1 0 102.4 0 51.2 51.2 0 1 0-102.4 0Z" p-id="3570"></path><path d="M503.466667 960c-46.933333 0-81.066667-38.4-81.066667-81.066667 0-46.933333 38.4-81.066667 81.066667-81.066666s81.066667 38.4 81.066666 81.066666c4.266667 42.666667-34.133333 81.066667-81.066666 81.066667z m0-115.2c-17.066667 0-29.866667 12.8-29.866667 29.866667s12.8 29.866667 29.866667 29.866666c17.066667 0 29.866667-12.8 29.866666-29.866666s-8.533333-29.866667-29.866666-29.866667z" p-id="3571"></path></svg>